<svg xmlns="http://www.w3.org/2000/svg"
     width="285" height="47"
     viewBox="0 0 285 47" fill="none" >
    <path d="M-1.2368e-06 30.72C1.33333 28.7467 3 27.02 5 25.54C7.66667 24.06 10 22.58 12 21.1L15 19.62L13 12.22L19 17.4L25 18.14L29 11.48L33 16.66L38 10.74L42 15.92L47 10L51 15.18L57 16.66L64 14.44L70 15.92L75 18.88L80 16.66L83 12.22L79 14.44L76 20.36C72.6667 22.3333 71.6667 24.3067 73 26.28L76 32.2L79 38.12L82 46.26L77 46.704L75 41.08L71 34.42C68.3333 36.3933 65.3333 37.1333 62 36.64L52 35.9C49.3333 35.4067 47 34.6667 45 33.68L43 39.6L41 47L36 46.704L34 39.6L35 32.2C34.3333 30.2267 33.3333 28.5 32 27.02C29.3333 26.0333 26.6667 25.2933 24 24.8L18 27.76L12 29.98L-1.2368e-06 30.72Z"
          fill="currentColor"/>
    <path d="M117.768 40H118.296L120.552 31.744L125.16 12.592L130.584 13.456L125.352 32.512L122.136 45.616L113.352 46.24L110.616 33.424L108.984 27.088L107.544 32.512L104.328 45.616L95.688 46.24L92.808 33.424L87.816 13.792L94.056 12.592L97.944 31.12L100.104 40H100.632L103.176 31.12L106.68 18.16L105.576 13.792L111.912 12.592L115.704 31.12L117.768 40ZM140.607 21.568L140.031 33.52L140.559 44.8L134.127 46L134.703 34.336L134.175 22.768L140.607 21.568ZM133.839 14.56C133.839 13.472 134.255 12.512 135.087 11.68C135.919 10.816 136.879 10.384 137.967 10.384C139.055 10.384 139.887 10.688 140.463 11.296C141.039 11.872 141.327 12.752 141.327 13.936C141.327 15.12 140.911 16.144 140.079 17.008C139.279 17.84 138.335 18.256 137.247 18.256C136.191 18.256 135.359 17.904 134.751 17.2C134.143 16.496 133.839 15.616 133.839 14.56ZM152.469 8.848L151.845 33.52L152.373 44.8L145.893 46L146.469 34.336L145.893 10.048L152.469 8.848ZM170.706 41.296C168.21 44.432 166.05 46 164.226 46C161.954 46 160.082 45.072 158.61 43.216C157.17 41.36 156.45 38.976 156.45 36.064C156.45 32.064 157.554 28.688 159.762 25.936C162.002 23.184 164.738 21.808 167.97 21.808L170.658 22.192V21.28L170.082 10.048L176.658 8.848L176.034 33.52V37.744C176.034 39.664 176.514 41.872 177.474 44.368L172.29 46.528C171.362 44.608 170.834 42.864 170.706 41.296ZM161.826 33.568C161.826 35.616 162.194 37.216 162.93 38.368C163.698 39.52 164.786 40.096 166.194 40.096C167.634 40.096 169.122 39.52 170.658 38.368V28C168.738 27.616 167.314 27.424 166.386 27.424C164.946 27.424 163.826 27.936 163.026 28.96C162.226 29.984 161.826 31.52 161.826 33.568ZM194.848 21.76C196.992 21.76 198.736 22.688 200.08 24.544C201.424 26.4 202.096 28.784 202.096 31.696C202.096 35.888 200.992 39.328 198.784 42.016C196.608 44.672 193.776 46 190.288 46C188.688 46 186 45.744 182.224 45.232L182.704 34.336L182.128 10.048L188.704 8.848L188.08 21.232V26.416C188.432 25.904 188.864 25.36 189.376 24.784C189.888 24.208 190.688 23.568 191.776 22.864C192.864 22.128 193.888 21.76 194.848 21.76ZM192.976 28C191.504 28 189.872 28.448 188.08 29.344V33.52L188.368 40.576C189.712 40.736 190.976 40.816 192.16 40.816C195.232 40.816 196.768 38.688 196.768 34.432C196.768 30.144 195.504 28 192.976 28ZM204.641 35.968C204.641 31.872 205.745 28.4 207.953 25.552C210.161 22.704 212.737 21.28 215.681 21.28C218.657 21.28 220.961 22.24 222.593 24.16C224.257 26.08 225.089 28.624 225.089 31.792C225.089 36.016 224.017 39.536 221.873 42.352C219.761 45.136 217.089 46.528 213.857 46.528C211.201 46.528 208.993 45.536 207.233 43.552C205.505 41.536 204.641 39.008 204.641 35.968ZM219.713 34.288C219.713 29.648 218.129 27.328 214.961 27.328C211.665 27.328 210.017 29.504 210.017 33.856C210.017 36.128 210.481 37.904 211.409 39.184C212.337 40.464 213.553 41.104 215.057 41.104C216.593 41.104 217.745 40.528 218.513 39.376C219.313 38.192 219.713 36.496 219.713 34.288ZM234.037 46C232.149 46 230.597 45.408 229.381 44.224C228.197 43.008 227.605 41.392 227.605 39.376C227.605 37.328 228.533 35.568 230.389 34.096C232.245 32.592 234.501 31.84 237.157 31.84H240.421V31.024C240.421 29.456 240.101 28.384 239.461 27.808C238.821 27.232 237.621 26.944 235.861 26.944C235.125 26.944 234.245 27.104 233.221 27.424C232.229 27.712 231.109 28.176 229.861 28.816L228.469 25.024C229.845 24.064 231.509 23.2 233.461 22.432C235.445 21.664 237.077 21.28 238.357 21.28C243.381 21.28 245.893 23.712 245.893 28.576V37.984C245.893 39.776 246.453 41.776 247.573 43.984L242.485 46.144C241.685 44.608 241.093 43.232 240.709 42.016C238.949 44.672 236.725 46 234.037 46ZM236.053 41.104C237.333 41.104 238.789 40.448 240.421 39.136V35.92C238.725 35.536 237.349 35.344 236.293 35.344C234.277 35.344 233.269 36.24 233.269 38.032C233.269 38.96 233.525 39.712 234.037 40.288C234.549 40.832 235.221 41.104 236.053 41.104ZM251.209 22.816L257.017 21.568C257.305 24.032 257.497 26.368 257.593 28.576C260.505 24.064 263.241 21.808 265.801 21.808L265.273 29.296C263.417 29.296 261.945 29.472 260.857 29.824C259.801 30.144 258.713 30.8 257.593 31.792V33.52L258.121 44.8L251.689 46L252.265 34.336C252.137 30.048 251.785 26.208 251.209 22.816ZM276.095 41.536C277.759 41.536 278.591 40.8 278.591 39.328C278.591 38.816 278.223 38.336 277.487 37.888C276.783 37.44 275.903 36.992 274.847 36.544C273.823 36.096 272.783 35.6 271.727 35.056C270.703 34.48 269.823 33.696 269.087 32.704C268.383 31.712 268.031 30.576 268.031 29.296C268.031 27.152 268.975 25.28 270.863 23.68C272.751 22.08 274.927 21.28 277.391 21.28C278.543 21.28 279.663 21.424 280.751 21.712C281.871 21.968 282.943 22.384 283.967 22.96L280.751 28.816C280.527 28.624 280.239 28.384 279.887 28.096C279.535 27.808 278.863 27.44 277.871 26.992C276.911 26.512 276.047 26.272 275.279 26.272C274.543 26.272 273.967 26.448 273.551 26.8C273.167 27.12 272.975 27.584 272.975 28.192C272.975 28.768 273.519 29.36 274.607 29.968C275.727 30.544 276.943 31.088 278.255 31.6C279.567 32.08 280.767 32.896 281.855 34.048C282.975 35.168 283.535 36.512 283.535 38.08C283.535 40.32 282.607 42.288 280.751 43.984C278.927 45.68 276.815 46.528 274.415 46.528C272.879 46.528 271.439 46.192 270.095 45.52C268.783 44.848 267.839 44.176 267.263 43.504L266.399 42.496L270.191 38.08C270.383 38.336 270.655 38.656 271.007 39.04C271.359 39.424 272.047 39.936 273.071 40.576C274.127 41.216 275.135 41.536 276.095 41.536Z"
          fill="currentColor"/>
</svg>
