<svg xmlns="http://www.w3.org/2000/svg" width="24" height="24" viewBox="0 0 24 24" class="b25_9_0-a6">
    <path fill="currentColor"
          d="M4.59 10.321q.11-.456.244-.914c.301-1.023.673-1.941 1.105-2.583C6.384 6.164 6.746 6 7 6c.56 0 .803.218 1.293.707a1 1 0 0 0 1.414-1.414l-.026-.026C9.17 4.757 8.415 4 7 4c-1.246 0-2.134.837-2.72 1.707-.6.89-1.04 2.034-1.364 3.136C2.269 11.04 2 13.387 2 14q0 .07.01.14-.01.177-.01.36C2 17.292 3.708 19 6.5 19s4.5-1.708 4.5-4.5c0-.81-.144-1.53-.416-2.142.076-.06.152-.108.238-.151.203-.102.541-.207 1.178-.207s.975.105 1.178.207c.086.043.162.092.238.151-.272.613-.416 1.332-.416 2.142 0 2.792 1.708 4.5 4.5 4.5s4.5-1.708 4.5-4.5a7 7 0 0 0-.01-.36q.01-.068.01-.14c0-.613-.27-2.959-.916-5.157-.324-1.102-.765-2.246-1.364-3.136C19.134 4.837 18.247 4 17 4c-1.415 0-2.17.756-2.68 1.267l-.027.026a1 1 0 0 0 1.414 1.414C16.197 6.217 16.44 6 17 6c.253 0 .616.163 1.061.824.432.642.804 1.56 1.105 2.583q.134.459.244.914c-.56-.21-1.2-.321-1.91-.321-1.135 0-2.09.282-2.825.804a3.4 3.4 0 0 0-.603-.386C13.525 10.145 12.863 10 12 10s-1.525.145-2.072.418a3.5 3.5 0 0 0-.603.386C8.59 10.282 7.635 10 6.5 10c-.71 0-1.35.11-1.91.321">

    </path>
</svg>