<svg width="197" height="38"
     viewBox="0 0 197 38"
     fill="none"
     xmlns="http://www.w3.org/2000/svg">
    <path d="M29.952 31.152H30.48L32.736 22.896L37.344 3.74401L42.768 4.60801L37.536 23.664L34.32 36.768L25.536 37.392L22.8 24.576L21.168 18.24L19.728 23.664L16.512 36.768L7.87201 37.392L4.99201 24.576L5.78165e-06 4.94401L6.24001 3.74401L10.128 22.272L12.288 31.152H12.816L15.36 22.272L18.864 9.31201L17.76 4.94401L24.096 3.74401L27.888 22.272L29.952 31.152ZM52.7906 12.72L52.2146 24.672L52.7426 35.952L46.3106 37.152L46.8866 25.488L46.3586 13.92L52.7906 12.72ZM46.0226 5.71201C46.0226 4.62401 46.4386 3.66401 47.2706 2.83201C48.1026 1.96801 49.0626 1.53601 50.1506 1.53601C51.2386 1.53601 52.0706 1.84001 52.6466 2.44801C53.2226 3.02401 53.5106 3.90401 53.5106 5.08801C53.5106 6.27201 53.0946 7.29601 52.2626 8.16001C51.4626 8.99201 50.5186 9.40801 49.4306 9.40801C48.3746 9.40801 47.5426 9.05601 46.9346 8.35201C46.3266 7.64801 46.0226 6.76801 46.0226 5.71201ZM64.6534 5.72205e-06L64.0294 24.672L64.5574 35.952L58.0774 37.152L58.6534 25.488L58.0774 1.20001L64.6534 5.72205e-06ZM82.89 32.448C80.394 35.584 78.234 37.152 76.41 37.152C74.138 37.152 72.266 36.224 70.794 34.368C69.354 32.512 68.634 30.128 68.634 27.216C68.634 23.216 69.738 19.84 71.946 17.088C74.186 14.336 76.922 12.96 80.154 12.96L82.842 13.344V12.432L82.266 1.20001L88.842 5.72205e-06L88.218 24.672V28.896C88.218 30.816 88.698 33.024 89.658 35.52L84.474 37.68C83.546 35.76 83.018 34.016 82.89 32.448ZM74.01 24.72C74.01 26.768 74.378 28.368 75.114 29.52C75.882 30.672 76.97 31.248 78.378 31.248C79.818 31.248 81.306 30.672 82.842 29.52V19.152C80.922 18.768 79.498 18.576 78.57 18.576C77.13 18.576 76.01 19.088 75.21 20.112C74.41 21.136 74.01 22.672 74.01 24.72ZM107.032 12.912C109.176 12.912 110.92 13.84 112.264 15.696C113.608 17.552 114.28 19.936 114.28 22.848C114.28 27.04 113.176 30.48 110.968 33.168C108.792 35.824 105.96 37.152 102.472 37.152C100.872 37.152 98.1838 36.896 94.4078 36.384L94.8878 25.488L94.3118 1.20001L100.888 5.72205e-06L100.264 12.384V17.568C100.616 17.056 101.048 16.512 101.56 15.936C102.072 15.36 102.872 14.72 103.96 14.016C105.048 13.28 106.072 12.912 107.032 12.912ZM105.16 19.152C103.688 19.152 102.056 19.6 100.264 20.496V24.672L100.552 31.728C101.896 31.888 103.16 31.968 104.344 31.968C107.416 31.968 108.952 29.84 108.952 25.584C108.952 21.296 107.688 19.152 105.16 19.152ZM116.825 27.12C116.825 23.024 117.929 19.552 120.137 16.704C122.345 13.856 124.921 12.432 127.865 12.432C130.841 12.432 133.145 13.392 134.777 15.312C136.441 17.232 137.273 19.776 137.273 22.944C137.273 27.168 136.201 30.688 134.057 33.504C131.945 36.288 129.273 37.68 126.041 37.68C123.385 37.68 121.177 36.688 119.417 34.704C117.689 32.688 116.825 30.16 116.825 27.12ZM131.897 25.44C131.897 20.8 130.313 18.48 127.145 18.48C123.849 18.48 122.201 20.656 122.201 25.008C122.201 27.28 122.665 29.056 123.593 30.336C124.521 31.616 125.737 32.256 127.241 32.256C128.777 32.256 129.929 31.68 130.697 30.528C131.497 29.344 131.897 27.648 131.897 25.44ZM146.221 37.152C144.333 37.152 142.781 36.56 141.565 35.376C140.381 34.16 139.789 32.544 139.789 30.528C139.789 28.48 140.717 26.72 142.573 25.248C144.429 23.744 146.685 22.992 149.341 22.992H152.605V22.176C152.605 20.608 152.285 19.536 151.645 18.96C151.005 18.384 149.805 18.096 148.045 18.096C147.309 18.096 146.429 18.256 145.405 18.576C144.413 18.864 143.293 19.328 142.045 19.968L140.653 16.176C142.029 15.216 143.693 14.352 145.645 13.584C147.629 12.816 149.261 12.432 150.541 12.432C155.565 12.432 158.077 14.864 158.077 19.728V29.136C158.077 30.928 158.637 32.928 159.757 35.136L154.669 37.296C153.869 35.76 153.277 34.384 152.893 33.168C151.133 35.824 148.909 37.152 146.221 37.152ZM148.237 32.256C149.517 32.256 150.973 31.6 152.605 30.288V27.072C150.909 26.688 149.533 26.496 148.477 26.496C146.461 26.496 145.453 27.392 145.453 29.184C145.453 30.112 145.709 30.864 146.221 31.44C146.733 31.984 147.405 32.256 148.237 32.256ZM163.393 13.968L169.201 12.72C169.489 15.184 169.681 17.52 169.777 19.728C172.689 15.216 175.425 12.96 177.985 12.96L177.457 20.448C175.601 20.448 174.129 20.624 173.041 20.976C171.985 21.296 170.897 21.952 169.777 22.944V24.672L170.305 35.952L163.873 37.152L164.449 25.488C164.321 21.2 163.969 17.36 163.393 13.968ZM188.279 32.688C189.943 32.688 190.775 31.952 190.775 30.48C190.775 29.968 190.407 29.488 189.671 29.04C188.967 28.592 188.087 28.144 187.031 27.696C186.007 27.248 184.967 26.752 183.911 26.208C182.887 25.632 182.007 24.848 181.271 23.856C180.567 22.864 180.215 21.728 180.215 20.448C180.215 18.304 181.159 16.432 183.047 14.832C184.935 13.232 187.111 12.432 189.575 12.432C190.727 12.432 191.847 12.576 192.935 12.864C194.055 13.12 195.127 13.536 196.151 14.112L192.935 19.968C192.711 19.776 192.423 19.536 192.071 19.248C191.719 18.96 191.047 18.592 190.055 18.144C189.095 17.664 188.231 17.424 187.463 17.424C186.727 17.424 186.151 17.6 185.735 17.952C185.351 18.272 185.159 18.736 185.159 19.344C185.159 19.92 185.703 20.512 186.791 21.12C187.911 21.696 189.127 22.24 190.439 22.752C191.751 23.232 192.951 24.048 194.039 25.2C195.159 26.32 195.719 27.664 195.719 29.232C195.719 31.472 194.791 33.44 192.935 35.136C191.111 36.832 188.999 37.68 186.599 37.68C185.063 37.68 183.623 37.344 182.279 36.672C180.967 36 180.023 35.328 179.447 34.656L178.583 33.648L182.375 29.232C182.567 29.488 182.839 29.808 183.191 30.192C183.543 30.576 184.231 31.088 185.255 31.728C186.311 32.368 187.319 32.688 188.279 32.688Z"
          fill="currentColor"/>
</svg>
