<svg width="83" height="37"
     viewBox="0 0 83 37"
     fill="none"
     xmlns="http://www.w3.org/2000/svg">
    <path d="M-1.2368e-06 20.72C1.33333 18.7467 3 17.02 5 15.54C7.66667 14.06 10 12.58 12 11.1L15 9.62L13 2.22L19 7.4L25 8.14L29 1.48L33 6.66L38 0.74L42 5.92L47 0L51 5.18L57 6.66L64 4.44L70 5.92L75 8.88L80 6.66L83 2.22L79 4.44L76 10.36C72.6667 12.3333 71.6667 14.3067 73 16.28L76 22.2L79 28.12L82 36.26L77 36.704L75 31.08L71 24.42C68.3333 26.3933 65.3333 27.1333 62 26.64L52 25.9C49.3333 25.4067 47 24.6667 45 23.68L43 29.6L41 37L36 36.704L34 29.6L35 22.2C34.3333 20.2267 33.3333 18.5 32 17.02C29.3333 16.0333 26.6667 15.2933 24 14.8L18 17.76L12 19.98L-1.2368e-06 20.72Z"
          fill="currentColor"/>
</svg>
